<?xml version="1.0" encoding="UTF-8" standalone="no"?>
<svg width="68px" height="81px" viewBox="0 0 68 81" version="1.1" xmlns="http://www.w3.org/2000/svg" xmlns:xlink="http://www.w3.org/1999/xlink" xmlns:sketch="http://www.bohemiancoding.com/sketch/ns">
    <!-- Generator: bin/sketchtool 1.4 (305) - http://www.bohemiancoding.com/sketch -->
    <title>generator nicks</title>
    <desc>Created with bin/sketchtool.</desc>
    <defs></defs>
    <g id="Page-1" stroke="none" stroke-width="1" fill="none" fill-rule="evenodd" sketch:type="MSPage">
        <g id="Главная-страница" sketch:type="MSArtboardGroup" transform="translate(-474.000000, -433.000000)">
            <g id="генераторы" sketch:type="MSLayerGroup" transform="translate(0.000000, 282.000000)">
                <g id="ников" transform="translate(474.000000, 150.750000)">
                    <g id="generator-nicks" transform="translate(0.000000, 1.000000)">
                        <rect id="Rectangle-4" fill="#FFD89E" sketch:type="MSShapeGroup" x="24.2424242" y="37.3737374" width="20.2020202" height="19.1919192"></rect>
                        <path d="M16.1616161,13.1313131 L51.5151514,13.1313131 C51.5151514,13.1313131 56.5656564,28.2828283 53.5353534,34.3434343 C50.5050504,40.4040404 41.680045,48.32812 34.3434346,48.4848485 C26.5334626,48.6516891 18.1818184,41.4141414 14.1414141,34.3434343 C10.1010098,27.2727273 16.1616161,13.1313131 16.1616161,13.1313131 Z" id="Rectangle-5" fill="#FFD89E" sketch:type="MSShapeGroup"></path>
                        <path d="M10.5050509,62.2222221 C15.2493153,56.6184713 24.2424242,52.2415606 24.2424242,52.2415606 C24.2424242,52.2415606 29.0472275,55.9048949 33.8911885,56.0082655 C40.0312925,56.1392959 44.4444444,52.2415606 44.4444444,52.2415606 C44.4444444,52.2415606 52.91671,55.7789605 58.1818201,62.2222221 C64.1709995,69.5515751 67.7295743,79.7979798 67.7295743,79.7979798 L0.0528065784,79.7979798 C0.0528065784,79.7979798 3.81790885,70.1208288 10.5050509,62.2222221 Z" id="Rectangle-3" fill="#896DFF" sketch:type="MSShapeGroup"></path>
                        <text id="Alvil" sketch:type="MSTextLayer" font-family="Proza" font-size="13" font-weight="260" fill="#FFFFFF">
                            <tspan x="22.4141414" y="73.8989899">Alvil</tspan>
                        </text>
                        <path d="M13.4740625,16.5856092 C14.4319781,13.4723835 19.5346685,6.71275306 19.5346685,6.71275306 C19.5346685,6.71275306 24.4830051,2.19924312 27.6154766,1.66224801 C30.6037229,1.14997721 36.7224525,-0.632383885 39.7366887,0.652147001 C42.0164056,1.62365901 41.7568903,4.04040405 45.4545438,5.05050506 C49.1521969,6.06060598 51.8579008,11.7632577 51.8579008,11.7632577 C51.8579008,11.7632577 54.4835825,18.0218169 54.8882039,20.8541668 C55.4936835,25.0925241 50.8477998,31.9652779 50.8477998,31.9652779 C50.8477998,31.9652779 51.8579023,23.2323223 49.8376988,20.8541668 C48.5173441,19.2998636 45.2050157,12.8898175 41.7568907,13.7834597 C35.8527371,15.3136251 23.3041555,17.723517 17.5144665,21.8642678 C16.112556,22.8669058 17.5144665,33.3333324 17.5144665,33.3333324 L13.1313131,25.2525243 C13.1313131,25.2525243 11.7383754,22.2265922 13.4740625,16.5856092 Z" id="Rectangle-6" fill="#A8A2CE" sketch:type="MSShapeGroup"></path>
                        <path d="M27.8787879,39.1919192 C27.8787879,39.1919192 31.4747727,41.2121212 34.7474747,41.2121212 C38.0201768,41.2121212 40.8080808,39.1919192 40.8080808,39.1919192" id="Line" stroke="#896DFF" stroke-linecap="square" sketch:type="MSShapeGroup"></path>
                        <path d="M26.7676768,31.3131313 C28.1623352,31.3131313 29.2929293,30.1825372 29.2929293,28.7878788 C29.2929293,27.3932203 28.1623352,26.2626263 26.7676768,26.2626263 C25.3730183,26.2626263 24.2424242,27.3932203 24.2424242,28.7878788 C24.2424242,30.1825372 25.3730183,31.3131313 26.7676768,31.3131313 Z" id="Oval-1" fill="#A8A2CE" sketch:type="MSShapeGroup"></path>
                        <path d="M41.9191919,31.3131313 C43.3138504,31.3131313 44.4444444,30.1825372 44.4444444,28.7878788 C44.4444444,27.3932203 43.3138504,26.2626263 41.9191919,26.2626263 C40.5245335,26.2626263 39.3939394,27.3932203 39.3939394,28.7878788 C39.3939394,30.1825372 40.5245335,31.3131313 41.9191919,31.3131313 Z" id="Oval-1-Copy" fill="#A8A2CE" sketch:type="MSShapeGroup"></path>
                    </g>
                </g>
            </g>
        </g>
    </g>
</svg>