<?xml version="1.0" encoding="UTF-8" standalone="no"?>
<svg width="80px" height="80px" viewBox="0 0 80 80" version="1.1" xmlns="http://www.w3.org/2000/svg" xmlns:xlink="http://www.w3.org/1999/xlink" xmlns:sketch="http://www.bohemiancoding.com/sketch/ns">
    <!-- Generator: bin/sketchtool 1.4 (305) - http://www.bohemiancoding.com/sketch -->
    <title>generator brands</title>
    <desc>Created with bin/sketchtool.</desc>
    <defs></defs>
    <g id="Page-1" stroke="none" stroke-width="1" fill="none" fill-rule="evenodd" sketch:type="MSPage">
        <g id="Главная-страница" sketch:type="MSArtboardGroup" transform="translate(-902.000000, -723.000000)">
            <g id="генераторы" sketch:type="MSLayerGroup" transform="translate(0.000000, 282.000000)">
                <g id="бренды" transform="translate(902.000000, 440.250000)" sketch:type="MSShapeGroup">
                    <g id="generator-brands">
                        <ellipse id="Oval-13" fill="#FFD89E" cx="11.0843373" cy="39.0361446" rx="8.19277108" ry="8.19277108"></ellipse>
                        <path d="M25.1462906,22.1071486 L28.8130145,20.9157577 L32.6850347,32.8326105 L29.0183108,34.0240013 L25.1462906,22.1071486 L25.1462906,22.1071486 Z" id="Rectangle-50" fill="#B0A6BF"></path>
                        <path d="M0.963855419,59.0903022 C0.963855419,54.6687299 4.52203925,50.728519 8.91588831,50.2891341 L18.2505812,49.3556648 C19.3498392,49.245739 20.8708693,48.5267211 21.6556772,47.7419132 L26.0240964,43.373494 L28.9156626,33.7349398 L30.1419471,32.9174168 C31.0616568,32.304277 32.5518791,32.3036624 33.4725108,32.9174168 L33.0335133,32.6247519 C33.9532231,33.2378917 34.9175089,34.6097946 35.1835467,35.6739458 L35.6626506,37.5903615 L33.5612175,45.2956161 C33.124839,46.8956707 31.8090381,49.1179301 30.6180488,50.2761476 C30.6180488,50.2761476 21.258629,59.1624104 21.2048193,60.7228916 C21.0147936,66.2336349 21.2048193,78.0722892 21.2048193,78.0722892 L0.963855422,78.0722892 L0.963855419,59.0903022 Z" id="Rectangle-49" fill="#0A9D20"></path>
                        <path d="M3.35911639,13.4430983 L39.8128446,0.891073066 L44.8336547,15.4725644 L8.37992648,28.0245896 L3.35911639,13.4430983 L3.35911639,13.4430983 Z" id="Rectangle-51" fill="#02580F"></path>
                        <g id="Group" transform="translate(23.923874, 13.850567) rotate(-18.000000) translate(-23.923874, -13.850567) translate(11.393754, 11.440928)" fill="#0A9D20">
                            <rect id="Rectangle-52" x="0" y="0.963855422" width="3.85542169" height="3.85542169"></rect>
                            <rect id="Rectangle-52-Copy" x="6.74698795" y="0.963855422" width="3.85542169" height="3.85542169"></rect>
                            <rect id="Rectangle-52-Copy-2" x="13.4939759" y="0.963855422" width="3.85542169" height="3.85542169"></rect>
                            <rect id="Rectangle-52-Copy-3" x="20.2409639" y="0.963855422" width="3.85542169" height="3.85542169"></rect>
                        </g>
                        <g id="Group" transform="translate(35.662651, 9.638554)">
                            <ellipse id="Oval-13-Copy" fill="#FFD89E" cx="33.253012" cy="36.1445783" rx="7.22891566" ry="7.22891566"></ellipse>
                            <rect id="Rectangle-50-Copy" fill="#B0A6BF" x="17.5448239" y="22.2218329" width="3.46456912" height="10.4960933"></rect>
                            <path d="M43.373494,54.8424127 C43.373494,50.428076 39.8015519,46.4954393 35.4116885,46.0602435 L28.4261093,45.3677174 C27.325348,45.2585918 25.7996231,44.5422154 25.0173435,43.7666907 L21.350858,40.1318644 L21.350858,32.2148856 L20.4763647,31.6369241 C19.5559379,31.0286047 17.9636439,30.8150759 16.9099313,31.1632805 L18.1685645,30.7473588 C17.1193045,31.0940921 15.9819474,32.2280381 15.6310636,33.2716 L15.4216867,33.8943069 L15.4216867,41.339847 C15.4216867,42.9914934 16.3920794,45.2562918 17.5808788,46.4047808 C17.5808788,46.4047808 25.538693,53.8871644 25.5859803,55.2466551 C25.7529725,60.0476133 25.5859803,70.3614458 25.5859803,70.3614458 L43.373494,70.3614458 L43.373494,54.8424127 Z" id="Rectangle-49-Copy" fill="#02590F"></path>
                            <g id="Rectangle-51-Copy-+-Group-Copy-2" transform="translate(20.999209, 17.061217) rotate(-19.000000) translate(-20.999209, -17.061217) translate(3.649812, 5.494952)">
                                <path d="M33.0029366,11.1362134 L4.15375312,0.191672312 L0.0743448236,12.0391339 L28.923527,22.9920976 L33.9539978,8.65943969 L33.0029366,11.1362134 Z" id="Rectangle-51-Copy" fill="#0A9D20"></path>
                                <g id="Group-Copy-2" transform="translate(16.915514, 11.087749) scale(-1, 1) rotate(-21.000000) translate(-16.915514, -11.087749) translate(5.831176, 8.678110)" fill="#02590F">
                                    <rect id="Rectangle-52" x="7.53346515e-14" y="0.830909846" width="3.41730559" height="3.32363939"></rect>
                                    <rect id="Rectangle-52-Copy" x="5.98028478" y="0.830909846" width="3.41730559" height="3.32363939"></rect>
                                    <rect id="Rectangle-52-Copy-2" x="11.9605696" y="0.830909846" width="3.41730559" height="3.32363939"></rect>
                                    <rect id="Rectangle-52-Copy-3" x="17.9408543" y="0.830909846" width="3.41730559" height="3.32363939"></rect>
                                </g>
                            </g>
                        </g>
                    </g>
                </g>
            </g>
        </g>
    </g>
</svg>