<?xml version="1.0" encoding="UTF-8" standalone="no"?>
<svg width="104px" height="71px" viewBox="0 0 104 71" version="1.1" xmlns="http://www.w3.org/2000/svg" xmlns:xlink="http://www.w3.org/1999/xlink" xmlns:sketch="http://www.bohemiancoding.com/sketch/ns">
    <!-- Generator: bin/sketchtool 1.4 (305) - http://www.bohemiancoding.com/sketch -->
    <title>generator responses</title>
    <desc>Created with bin/sketchtool.</desc>
    <defs></defs>
    <g id="Page-1" stroke="none" stroke-width="1" fill="none" fill-rule="evenodd" sketch:type="MSPage">
        <g id="Главная-страница" sketch:type="MSArtboardGroup" transform="translate(-891.000000, -438.000000)">
            <g id="генераторы" sketch:type="MSLayerGroup" transform="translate(0.000000, 282.000000)">
                <g id="ответы" transform="translate(891.000000, 155.250000)" sketch:type="MSShapeGroup">
                    <g id="generator-responses" transform="translate(0.000000, 1.000000)">
                        <g id="Group-Copy" transform="translate(34.000000, 0.000000)">
                            <path d="M35,70 C54.3299662,70 70,54.3299662 70,35 C70,15.6700338 54.3299662,0 35,0 C15.6700338,0 0,15.6700338 0,35 C0,54.3299662 15.6700338,70 35,70 Z" id="Oval-4" fill="#CC34BE"></path>
                            <circle id="Oval-5" fill="#FFFFFF" cx="23" cy="28" r="5"></circle>
                            <path d="M47.5,33 C50.2614237,33 52.5,30.7614237 52.5,28 C52.5,25.2385763 50.2614237,23 47.5,23 C44.7385763,23 42.5,25.2385763 42.5,28 C42.5,30.7614237 44.7385763,33 47.5,33 Z" id="Oval-5-Copy" fill="#FF41EE"></path>
                            <path d="M16,42 C16,49 24.7304474,58 35.5,58 C46.2695526,58 55,49 55,42" id="Oval-5-Copy-2" stroke="#FF41EE" stroke-width="2" transform="translate(35.500000, 50.000000) scale(1, -1) translate(-35.500000, -50.000000) "></path>
                        </g>
                        <g id="Group">
                            <path d="M35,70 C54.3299662,70 70,54.3299662 70,35 C70,15.6700338 54.3299662,0 35,0 C15.6700338,0 0,15.6700338 0,35 C0,54.3299662 15.6700338,70 35,70 Z" id="Oval-4" fill="#FF41EE"></path>
                            <circle id="Oval-5" fill="#FFFFFF" cx="23" cy="28" r="5"></circle>
                            <circle id="Oval-5-Copy" fill="#FFFFFF" cx="47.5" cy="28" r="5"></circle>
                            <path d="M16,42 C16,49 24.7304474,58 35.5,58 C46.2695526,58 55,49 55,42" id="Oval-5-Copy-2" stroke="#FFFFFF" stroke-width="2"></path>
                        </g>
                    </g>
                </g>
            </g>
        </g>
    </g>
</svg>