<?xml version="1.0" encoding="UTF-8" standalone="no"?>
<svg width="111px" height="72px" viewBox="0 0 111 72" version="1.1" xmlns="http://www.w3.org/2000/svg" xmlns:xlink="http://www.w3.org/1999/xlink" xmlns:sketch="http://www.bohemiancoding.com/sketch/ns">
    <!-- Generator: bin/sketchtool 1.4 (305) - http://www.bohemiancoding.com/sketch -->
    <title>lottery generator</title>
    <desc>Created with bin/sketchtool.</desc>
    <defs></defs>
    <g id="Page-1" stroke="none" stroke-width="1" fill="none" fill-rule="evenodd" sketch:type="MSPage">
        <g id="Главная-страница" sketch:type="MSArtboardGroup" transform="translate(-455.000000, -728.000000)">
            <g id="генераторы" sketch:type="MSLayerGroup" transform="translate(0.000000, 282.000000)">
                <g id="лотерея" transform="translate(454.000000, 445.250000)">
                    <g id="lottery-generator" transform="translate(0.000000, 1.000000)">
                        <g id="1">
                            <circle id="Oval-10" fill="#FDCD2D" sketch:type="MSShapeGroup" cx="21" cy="20" r="20"></circle>
                            <path d="M10.5,14.9952534 C10.5,12.2364511 12.7473679,10 15.5033431,10 L26.4966569,10 C29.259927,10 31.5,12.236038 31.5,14.9952534 L31.5,25.0047466 C31.5,27.7635489 29.2526321,30 26.4966569,30 L15.5033431,30 C12.740073,30 10.5,27.763962 10.5,25.0047466 L10.5,14.9952534 Z" id="Rectangle-29" fill="#A8A2CE" sketch:type="MSShapeGroup"></path>
                            <path d="M21,36 C15,36 10.5,39 10.5,39 C10.5,39 14.5,40 21,40 C27.5,40 31.5,39 31.5,39 C31.5,39 27,36 21,36 Z" id="Rectangle-29-Copy-3" opacity="0.904559235" fill="#A8A2CE" sketch:type="MSShapeGroup" transform="translate(21.000000, 38.000000) scale(1, -1) translate(-21.000000, -38.000000) "></path>
                            <path d="M21,0 C15,0 10.5,1 10.5,1 C10.5,1 14.5,4 21,4 C27.5,4 31.5,1 31.5,1 C31.5,1 27,0 21,0 Z" id="Rectangle-29-Copy-4" opacity="0.904559235" fill="#A8A2CE" sketch:type="MSShapeGroup" transform="translate(21.000000, 2.000000) scale(1, -1) translate(-21.000000, -2.000000) "></path>
                            <path d="M39,18 C33,18 28.5,21 28.5,21 C28.5,21 32,22 38.5,22 C45,22 49.5,21 49.5,21 C49.5,21 45,18 39,18 Z" id="Rectangle-29-Copy-5" opacity="0.904559235" fill="#A8A2CE" sketch:type="MSShapeGroup" transform="translate(39.000000, 20.000000) scale(1, -1) rotate(90.000000) translate(-39.000000, -20.000000) "></path>
                            <path d="M2.61181641,18 C-3.38818359,18 -7.5,19 -7.5,19 C-7.5,19 -3.88818359,22 2.61181641,22 C9.11181641,22 13.5,19 13.5,19 C13.5,19 8.61181641,18 2.61181641,18 Z" id="Rectangle-29-Copy-6" opacity="0.904559235" fill="#A8A2CE" sketch:type="MSShapeGroup" transform="translate(3.000000, 20.000000) scale(1, -1) rotate(90.000000) translate(-3.000000, -20.000000) "></path>
                            <text id="15" sketch:type="MSTextLayer" font-family="Open Sans" font-size="13" font-weight="bold" fill="#FFFFFF">
                                <tspan x="13" y="25">15</tspan>
                            </text>
                        </g>
                        <g id="1-copy" transform="translate(71.000000, 0.000000)">
                            <circle id="Oval-10" fill="#FDCD2D" sketch:type="MSShapeGroup" cx="21" cy="20" r="20"></circle>
                            <path d="M10.5,14.9952534 C10.5,12.2364511 12.7473679,10 15.5033431,10 L26.4966569,10 C29.259927,10 31.5,12.236038 31.5,14.9952534 L31.5,25.0047466 C31.5,27.7635489 29.2526321,30 26.4966569,30 L15.5033431,30 C12.740073,30 10.5,27.763962 10.5,25.0047466 L10.5,14.9952534 Z" id="Rectangle-29" fill="#B0A6BF" sketch:type="MSShapeGroup"></path>
                            <path d="M21,36 C15,36 10.5,39 10.5,39 C10.5,39 14.5,40 21,40 C27.5,40 31.5,39 31.5,39 C31.5,39 27,36 21,36 Z" id="Rectangle-29-Copy-3" opacity="0.904559235" fill="#A8A2CE" sketch:type="MSShapeGroup" transform="translate(21.000000, 38.000000) scale(1, -1) translate(-21.000000, -38.000000) "></path>
                            <path d="M21,0 C15,0 10.5,1 10.5,1 C10.5,1 14.5,4 21,4 C27.5,4 31.5,1 31.5,1 C31.5,1 27,0 21,0 Z" id="Rectangle-29-Copy-4" opacity="0.904559235" fill="#A8A2CE" sketch:type="MSShapeGroup" transform="translate(21.000000, 2.000000) scale(1, -1) translate(-21.000000, -2.000000) "></path>
                            <path d="M39,18 C33,18 28.5,21 28.5,21 C28.5,21 32,22 38.5,22 C45,22 49.5,21 49.5,21 C49.5,21 45,18 39,18 Z" id="Rectangle-29-Copy-5" opacity="0.904559235" fill="#A8A2CE" sketch:type="MSShapeGroup" transform="translate(39.000000, 20.000000) scale(1, -1) rotate(90.000000) translate(-39.000000, -20.000000) "></path>
                            <path d="M2.61181641,18 C-3.38818359,18 -7.5,19 -7.5,19 C-7.5,19 -3.88818359,22 2.61181641,22 C9.11181641,22 13.5,19 13.5,19 C13.5,19 8.61181641,18 2.61181641,18 Z" id="Rectangle-29-Copy-6" opacity="0.904559235" fill="#A8A2CE" sketch:type="MSShapeGroup" transform="translate(3.000000, 20.000000) scale(1, -1) rotate(90.000000) translate(-3.000000, -20.000000) "></path>
                            <text id="54" sketch:type="MSTextLayer" font-family="Open Sans" font-size="13" font-weight="bold" fill="#FFFFFF">
                                <tspan x="13" y="25">54</tspan>
                            </text>
                        </g>
                        <g id="2" transform="translate(31.000000, 20.000000)">
                            <circle id="Oval-10" fill="#FDCD2D" sketch:type="MSShapeGroup" cx="25" cy="26" r="25"></circle>
                            <path d="M12,14.9990375 C12,12.2381453 14.2392484,10 16.9976716,10 L33.0023284,10 C35.7624662,10 38,12.2405846 38,14.9990375 L38,30.0009625 C38,32.7618547 35.7607516,35 33.0023284,35 L16.9976716,35 C14.2375338,35 12,32.7594154 12,30.0009625 L12,14.9990375 Z" id="Rectangle-29" fill="#A8A2CE" sketch:type="MSShapeGroup"></path>
                            <path d="M25,42 C17.5714286,42 12,45.8571429 12,45.8571429 C12,45.8571429 16.952381,51 25,51 C33.047619,51 38,45.8571429 38,45.8571429 C38,45.8571429 32.4285714,42 25,42 Z" id="Rectangle-29-Copy-3" opacity="0.904559235" fill="#A8A2CE" sketch:type="MSShapeGroup" transform="translate(25.000000, 46.500000) scale(1, -1) translate(-25.000000, -46.500000) "></path>
                            <path d="M25.3320003,0.92903773 C18.6626209,0.92903773 15.2030215,0.929037674 15.2030215,0.929037674 C15.2030215,0.929037674 19.6541305,2.99999992 25.3320003,2.99999992 C30.4423333,2.99999992 34.8303299,0.929037674 34.8303299,0.929037674 C34.8303299,0.929037674 32.0013796,0.92903773 25.3320003,0.92903773 Z" id="Rectangle-29-Copy-4" opacity="0.904559235" fill="#A8A2CE" sketch:type="MSShapeGroup" transform="translate(25.016676, 1.964519) scale(1, -1) translate(-25.016676, -1.964519) "></path>
                            <text id="87" sketch:type="MSTextLayer" font-family="Open Sans" font-size="16.4666667" font-weight="bold" fill="#FFFFFF">
                                <tspan x="15" y="29">87</tspan>
                            </text>
                            <path d="M46.8344694,22.5143399 C40.5487551,22.5143399 39.4044312,23.9013964 39.4044312,23.9013964 C38.7268085,24.3134346 38.7742632,24.9050737 39.5174386,25.2258874 L39.9696861,25.4211134 L58.1283368,25.4211134 C58.1283368,25.4211134 53.1201837,22.5143399 46.8344694,22.5143399 Z" id="Rectangle-29-Copy-7" opacity="0.904559235" fill="#A8A2CE" sketch:type="MSShapeGroup" transform="translate(48.527387, 23.967727) scale(1, -1) rotate(90.000000) translate(-48.527387, -23.967727) "></path>
                            <path d="M-0.165530601,22.5143399 C-6.45124489,22.5143399 -7.5955688,23.9013964 -7.5955688,23.9013964 C-8.27319148,24.3134346 -8.22573677,24.9050737 -7.48256142,25.2258874 L-7.03031385,25.4211134 L11.1283368,25.4211134 C11.1283368,25.4211134 6.12018368,22.5143399 -0.165530601,22.5143399 Z" id="Rectangle-29-Copy-8" opacity="0.904559235" fill="#A8A2CE" sketch:type="MSShapeGroup" transform="translate(1.527387, 23.967727) scale(-1, -1) rotate(90.000000) translate(-1.527387, -23.967727) "></path>
                        </g>
                    </g>
                </g>
            </g>
        </g>
    </g>
</svg>