<?xml version="1.0" encoding="UTF-8" standalone="no"?>
<svg width="81px" height="81px" viewBox="0 0 81 81" version="1.1" xmlns="http://www.w3.org/2000/svg" xmlns:xlink="http://www.w3.org/1999/xlink" xmlns:sketch="http://www.bohemiancoding.com/sketch/ns">
    <!-- Generator: bin/sketchtool 1.4 (305) - http://www.bohemiancoding.com/sketch -->
    <title>number generator</title>
    <desc>Created with bin/sketchtool.</desc>
    <defs></defs>
    <g id="Page-1" stroke="none" stroke-width="1" fill="none" fill-rule="evenodd" sketch:type="MSPage">
        <g id="Главная-страница" sketch:type="MSArtboardGroup" transform="translate(-254.000000, -433.000000)">
            <g id="генераторы" sketch:type="MSLayerGroup" transform="translate(0.000000, 282.000000)">
                <g id="числа" transform="translate(254.000000, 150.750000)" sketch:type="MSShapeGroup">
                    <g id="number-generator" transform="translate(0.500000, 0.500000)">
                        <rect id="Rectangle-74" fill="#33D6D6" x="0" y="0" width="80" height="80" rx="4"></rect>
                        <g id="Group" transform="translate(8.000000, 19.000000)" fill="#50FFFF">
                            <path d="M5.7328192,39.6945917 C5.32809433,39.3216518 5.3138733,38.7039347 5.70591206,38.3100019 L8.29408798,35.7093224 C8.68395244,35.3175744 9.44483699,35 9.9955775,35 L19.0044221,35 C19.5542644,35 20.3138729,35.3153896 20.7059116,35.7093224 L23.2940875,38.310002 C23.683952,38.70175 23.6781319,39.3185221 23.2735676,39.6945918 L20.4441425,42.3247326 C20.0429452,42.6976725 19.2709314,43 18.7207287,43 L10.3169233,43 C9.76630548,43 8.99524379,42.7008023 8.58712233,42.3247326 L5.7328192,39.6945917 Z" id="Rectangle-66-Copy"></path>
                            <path d="M5.7328192,5.69459167 C5.32809433,5.3216518 5.3138733,4.70393466 5.70591206,4.31000193 L8.29408798,1.70932237 C8.68395244,1.31757444 9.44483699,0.999999999 9.9955775,0.999999999 L19.0044221,1 C19.5542644,1 20.3138729,1.31538964 20.7059116,1.70932239 L23.2940875,4.31000202 C23.683952,4.70174996 23.6781319,5.31852206 23.2735676,5.69459176 L20.4441425,8.32473265 C20.0429452,8.69767251 19.2709314,9 18.7207287,9 L10.3169233,9 C9.76630548,9 8.99524379,8.70080234 8.58712233,8.32473263 L5.7328192,5.69459167 Z" id="Rectangle-66-Copy-3"></path>
                            <path d="M9.50044518,22.9090842 C9.06384359,22.5693708 9.05766369,22.0146899 9.48935724,21.6679891 L12.9898961,18.8566441 C13.420374,18.5109196 14.208263,18.2306546 14.7724158,18.2306546 L35.766274,18.2306546 C36.3202546,18.2306546 37.1075759,18.5360643 37.512428,18.9016299 L40.5262611,21.6230034 C40.9366547,21.9935729 40.9311132,22.5898693 40.5161457,22.9528898 L37.5225434,25.5717436 C37.1065632,25.9356501 36.3304268,26.2306546 35.766274,26.2306546 L14.772416,26.2306544 C14.2184355,26.2306544 13.4215899,25.9600707 12.9788084,25.6155488 L9.50044518,22.9090842 Z" id="Rectangle-66-Copy-2" transform="translate(25.000000, 22.230655) rotate(90.000000) translate(-25.000000, -22.230655) "></path>
                            <path d="M-11.4995548,22.9090842 C-11.9361564,22.5693708 -11.9423363,22.0146899 -11.5106428,21.6679891 L-8.01010387,18.8566441 C-7.57962598,18.5109196 -6.79173696,18.2306546 -6.22758419,18.2306546 L14.766274,18.2306546 C15.3202546,18.2306546 16.1075759,18.5360643 16.512428,18.9016299 L19.5262611,21.6230034 C19.9366547,21.9935729 19.9311132,22.5898693 19.5161457,22.9528898 L16.5225434,25.5717436 C16.1065632,25.9356501 15.3304268,26.2306546 14.766274,26.2306546 L-6.22758399,26.2306544 C-6.78156454,26.2306544 -7.57841013,25.9600707 -8.0211916,25.6155488 L-11.4995548,22.9090842 Z" id="Rectangle-66-Copy-4" transform="translate(4.000000, 22.230655) rotate(90.000000) translate(-4.000000, -22.230655) "></path>
                            <path d="M41.7328192,39.6945917 C41.3280943,39.3216518 41.3138733,38.7039347 41.7059121,38.3100019 L44.294088,35.7093224 C44.6839524,35.3175744 45.444837,35 45.9955775,35 L55.0044221,35 C55.5542644,35 56.3138729,35.3153896 56.7059116,35.7093224 L59.2940875,38.310002 C59.683952,38.70175 59.6781319,39.3185221 59.2735676,39.6945918 L56.4441425,42.3247326 C56.0429452,42.6976725 55.2709314,43 54.7207287,43 L46.3169233,43 C45.7663055,43 44.9952438,42.7008023 44.5871223,42.3247326 L41.7328192,39.6945917 Z" id="Rectangle-66-Copy-8"></path>
                            <path d="M41.7328192,5.69459167 C41.3280943,5.3216518 41.3138733,4.70393466 41.7059121,4.31000193 L44.294088,1.70932237 C44.6839524,1.31757444 45.444837,0.999999999 45.9955775,0.999999999 L55.0044221,1 C55.5542644,1 56.3138729,1.31538964 56.7059116,1.70932239 L59.2940875,4.31000202 C59.683952,4.70174996 59.6781319,5.31852206 59.2735676,5.69459176 L56.4441425,8.32473265 C56.0429452,8.69767251 55.2709314,9 54.7207287,9 L46.3169233,9 C45.7663055,9 44.9952438,8.70080234 44.5871223,8.32473263 L41.7328192,5.69459167 Z" id="Rectangle-66-Copy-7"></path>
                            <path d="M45.5004452,22.9090842 C45.0638436,22.5693708 45.0576637,22.0146899 45.4893572,21.6679891 L48.9898961,18.8566441 C49.420374,18.5109196 50.208263,18.2306546 50.7724158,18.2306546 L71.766274,18.2306546 C72.3202546,18.2306546 73.1075759,18.5360643 73.512428,18.9016299 L76.5262611,21.6230034 C76.9366547,21.9935729 76.9311132,22.5898693 76.5161457,22.9528898 L73.5225434,25.5717436 C73.1065632,25.9356501 72.3304268,26.2306546 71.766274,26.2306546 L50.772416,26.2306544 C50.2184355,26.2306544 49.4215899,25.9600707 48.9788084,25.6155488 L45.5004452,22.9090842 Z" id="Rectangle-66-Copy-6" transform="translate(61.000000, 22.230655) rotate(90.000000) translate(-61.000000, -22.230655) "></path>
                            <path d="M24.5004452,22.9090842 C24.0638436,22.5693708 24.0576637,22.0146899 24.4893572,21.6679891 L27.9898961,18.8566441 C28.420374,18.5109196 29.208263,18.2306546 29.7724158,18.2306546 L50.766274,18.2306546 C51.3202546,18.2306546 52.1075759,18.5360643 52.512428,18.9016299 L55.5262611,21.6230034 C55.9366547,21.9935729 55.9311132,22.5898693 55.5161457,22.9528898 L52.5225434,25.5717436 C52.1065632,25.9356501 51.3304268,26.2306546 50.766274,26.2306546 L29.772416,26.2306544 C29.2184355,26.2306544 28.4215899,25.9600707 27.9788084,25.6155488 L24.5004452,22.9090842 Z" id="Rectangle-66-Copy-5" transform="translate(40.000000, 22.230655) rotate(90.000000) translate(-40.000000, -22.230655) "></path>
                        </g>
                    </g>
                </g>
            </g>
        </g>
    </g>
</svg>