<?xml version="1.0" encoding="UTF-8" standalone="no"?>
<svg width="118px" height="81px" viewBox="0 0 118 81" version="1.1" xmlns="http://www.w3.org/2000/svg" xmlns:xlink="http://www.w3.org/1999/xlink" xmlns:sketch="http://www.bohemiancoding.com/sketch/ns">
    <!-- Generator: bin/sketchtool 1.4 (305) - http://www.bohemiancoding.com/sketch -->
    <title>password generator</title>
    <desc>Created with bin/sketchtool.</desc>
    <defs></defs>
    <g id="Page-1" stroke="none" stroke-width="1" fill="none" fill-rule="evenodd" sketch:type="MSPage">
        <g id="Главная-страница" sketch:type="MSArtboardGroup" transform="translate(-666.000000, -432.000000)">
            <g id="генераторы" sketch:type="MSLayerGroup" transform="translate(0.000000, 282.000000)">
                <g id="пароли" transform="translate(666.000000, 149.750000)">
                    <g id="password-generator" transform="translate(0.500000, 3.500000)">
                        <rect id="Rectangle-9" stroke="#A8A2CE" stroke-width="4" sketch:type="MSShapeGroup" x="0" y="43.2359235" width="75.230292" height="26.8679614"></rect>
                        <path d="M58.1499447,41.123067 C58.1499447,34.4953974 63.5246034,29.1226095 70.1568705,29.1226095 L104.950388,29.1226095 C111.58163,29.1226095 116.957313,34.5035087 116.957313,41.123067 L116.957313,65.6694454 C116.957313,72.2971151 111.582655,77.6699029 104.950388,77.6699029 L70.1568705,77.6699029 C63.5256285,77.6699029 58.1499447,72.2890037 58.1499447,65.6694454 L58.1499447,41.123067 Z" id="Rectangle-7" fill="#CA5FFF" sketch:type="MSShapeGroup"></path>
                        <path d="M105.881376,19.8822915 C105.881376,19.6080626 105.893877,16.9171934 105.881374,16.6460548 C105.454109,7.38068514 97.8069913,0 88.4360227,0 C78.7908252,0 70.9718478,7.81897745 70.9718478,17.4641749 L70.9718478,30.0921168" id="Oval-13" stroke="#A8A2CE" stroke-width="5" sketch:type="MSShapeGroup"></path>
                        <g id="Oval-13-+-Rectangle-8" transform="translate(81.256392, 43.278912)" fill="#FFFFFF" sketch:type="MSShapeGroup">
                            <ellipse id="Oval-13" cx="5.6422719" cy="5.6422719" rx="5.6422719" ry="5.6422719"></ellipse>
                            <path d="M3.22415537,10.7471846 L8.06038843,10.7471846 L11.2845438,19.8822915 L0,19.8822915 L3.22415537,10.7471846 Z" id="Rectangle-8"></path>
                        </g>
                        <text id="***" sketch:type="MSTextLayer" font-family="Proza" font-size="24" font-weight="260" letter-spacing="2.5" fill="#A8A2CE">
                            <tspan x="15.100818" y="69.0869931">***</tspan>
                        </text>
                    </g>
                </g>
            </g>
        </g>
    </g>
</svg>