<?xml version="1.0" encoding="UTF-8" standalone="no"?>
<svg width="82px" height="75px" viewBox="0 0 82 75" version="1.1" xmlns="http://www.w3.org/2000/svg" xmlns:xlink="http://www.w3.org/1999/xlink" xmlns:sketch="http://www.bohemiancoding.com/sketch/ns">
    <!-- Generator: bin/sketchtool 1.4 (305) - http://www.bohemiancoding.com/sketch -->
    <title>rhyming generator</title>
    <desc>Created with bin/sketchtool.</desc>
    <defs></defs>
    <g id="Page-1" stroke="none" stroke-width="1" fill="none" fill-rule="evenodd" sketch:type="MSPage">
        <g id="Главная-страница" sketch:type="MSArtboardGroup" transform="translate(-1122.000000, -725.000000)">
            <g id="генераторы" sketch:type="MSLayerGroup" transform="translate(0.000000, 282.000000)">
                <g id="рифмы" transform="translate(1122.000000, 442.250000)" sketch:type="MSShapeGroup">
                    <g id="rhyming-generator" transform="translate(1.303797, 1.000000)">
                        <path d="M57.9331895,7.32529245 L63.936871,8.99415927 L63.2099709,11.3717422 L57.1406661,9.9175197 L57.9331895,7.32529245 L57.9331895,7.32529245 Z" id="Rectangle-60-Copy-3" fill="#B0A6BF"></path>
                        <path d="M58.2418903,4.8899495 L62.01055,6.0421444 L53.5328844,27.0318766 L51.6485545,26.4557793 L58.2418903,4.8899495 L58.2418903,4.8899495 Z" id="Rectangle-60-Copy-4" fill="#31DCF9"></path>
                        <path d="M51.5112312,57.2649144 C56.4490885,37.2440099 67.7611953,4.26282161 67.7611953,4.26282161 C68.7553777,1.3214758 72.0068065,-0.324304346 75.0134468,0.583842879 L75.9116922,0.855155377 C78.9228177,1.76465734 80.6399118,4.9112938 79.7337497,7.90378649 C79.7337497,7.90378649 69.8312217,41.1647837 62.6582288,60.0045736 C60.7479238,65.0219695 54.1139233,74.0735119 54.1139233,74.0735119 L51.2438416,73.2066118 C51.2438416,73.2066118 50.3432617,62.0005325 51.5112312,57.2649144 L51.5112312,57.2649144 Z" id="Rectangle-60" fill="#31DCF9"></path>
                        <path d="M51.0692575,70.8876348 C51.0692575,70.8876348 52.31749,70.1453874 53.5414304,70.4921182 C54.7653709,70.838849 55.3743941,72.2989314 55.3743941,72.2989314 L54.1076185,74.0855812 L51.2430701,73.1899767 L51.0692575,70.8876348 L51.0692575,70.8876348 Z" id="Rectangle-65" fill="#1B7888"></path>
                        <path d="M36.5506329,71.4412655 C36.5506329,71.4412655 32.8532096,68.3345618 31.4023181,67.628782 C29.9514265,66.9230022 29.8501334,68.2353935 28.1915206,67.3750121 C26.5329078,66.5146307 27.3757766,64.4123268 25.2767184,64.4512159 C23.1776603,64.490105 22.1563375,69.5863951 20.3847674,67.2426755 C18.6131973,64.8989559 22.1828135,57.824473 19.5303942,56.8490483 C16.877975,55.8736236 11.8099607,65.7928436 6.86580478,62.8839937 C1.92164885,59.9751438 -0.204561896,51.1319776 0.868637117,45.8695706 C2.13146053,39.6773446 4.78279981,30.2915218 13.8738721,28.5200947 C22.9649443,26.7486677 22.182814,39.0515106 22.182814,39.0515106" id="Line" stroke="#1B7888" stroke-width="3" stroke-linecap="square"></path>
                        <path d="M67.2816425,3.2923014 C68.0939577,0.920608717 70.7577984,-0.411618735 73.2458761,0.320921504 L75.9243194,1.10950923 C78.4059595,1.84015411 79.8036704,4.36664107 79.045096,6.75603485 L72.3798318,27.750599 L60.0529879,24.3975903 L67.2816425,3.2923014 L67.2816425,3.2923014 Z" id="Rectangle-60-Copy" fill="#1DAAC2"></path>
                        <path d="M60.0846871,24.4059441 L72.3806329,27.7549897 L71.1525285,31.623331 L58.7457115,28.623513 L60.0846871,24.4059441 L60.0846871,24.4059441 Z" id="Rectangle-60-Copy-2" fill="#B7F5FF"></path>
                    </g>
                </g>
            </g>
        </g>
    </g>
</svg>